<?xml version="1.0" encoding="utf-8"?>
<!-- Generator: Adobe Illustrator 28.0.0, SVG Export Plug-In . SVG Version: 6.00 Build 0)  -->
<svg version="1.1" id="Calque_1" xmlns="http://www.w3.org/2000/svg" xmlns:xlink="http://www.w3.org/1999/xlink" x="0px" y="0px"
	 viewBox="0 0 50 50" style="enable-background:new 0 0 50 50;" xml:space="preserve">
<style type="text/css">
	.st0{fill:#FFFFFF;}
</style>
<path class="st0" d="M25,0C11.2,0,0,11.2,0,25s11.2,25,25,25s25-11.2,25-25S38.8,0,25,0z M38,20.5c0.1,3.4-0.7,6.7-2.6,9.5
	c-4.9,7.6-15,9.9-22.6,5c3.1,0.4,6.2-0.5,8.6-2.4c-2.5,0-4.6-1.7-5.4-4c0.9,0.2,1.8,0.1,2.6-0.1c-2.7-0.6-4.7-3-4.6-5.7
	c0.8,0.4,1.6,0.7,2.5,0.7c-2.5-1.7-3.3-5.1-1.8-7.7c2.9,3.6,7.2,5.8,11.9,6c-0.5-2,0.2-4.1,1.7-5.5c2.3-2.2,6-2.1,8.2,0.2
	c1.3-0.2,2.5-0.7,3.7-1.4c-0.4,1.3-1.3,2.5-2.5,3.2c1.1-0.1,2.3-0.4,3.3-0.9C40.1,18.7,39.1,19.7,38,20.5z"/>
</svg>
