<?xml version="1.0" encoding="utf-8"?>
<!-- Generator: Adobe Illustrator 28.0.0, SVG Export Plug-In . SVG Version: 6.00 Build 0)  -->
<svg version="1.1" id="Calque_1" xmlns="http://www.w3.org/2000/svg" xmlns:xlink="http://www.w3.org/1999/xlink" x="0px" y="0px"
	 viewBox="0 0 50 50" style="enable-background:new 0 0 50 50;" xml:space="preserve">
<style type="text/css">
	.st0{fill:#FFFFFF;}
</style>
<g>
	<path class="st0" d="M49.5,20.1C46.8,6.5,33.6-2.2,20.1,0.5C6.5,3.2-2.2,16.4,0.5,29.9s15.9,22.3,29.4,19.6S52.2,33.6,49.5,20.1z
		 M35,35H15c0,0,0,0-0.1,0c-2.3,0-4.2-2-4.2-4.3V19.3c0-2.3,1.9-4.3,4.3-4.3h20c2.3,0,4.2,1.9,4.2,4.3v11.5C39.3,33.1,37.3,35,35,35
		z"/>
	<polygon class="st0" points="22.2,29.8 30.3,24.5 22.2,19.1 	"/>
</g>
</svg>
