<?xml version="1.0" encoding="utf-8"?>
<!-- Generator: Adobe Illustrator 28.0.0, SVG Export Plug-In . SVG Version: 6.00 Build 0)  -->
<svg version="1.1" id="Calque_1" xmlns="http://www.w3.org/2000/svg" xmlns:xlink="http://www.w3.org/1999/xlink" x="0px" y="0px"
	 viewBox="0 0 50 50" style="enable-background:new 0 0 50 50;" xml:space="preserve">
<style type="text/css">
	.st0{fill:#FFFFFF;}
</style>
<path class="st0" d="M49.5,20.1C46.8,6.5,33.6-2.2,20.1,0.5S-2.2,16.4,0.5,29.9c2.7,13.5,15.9,22.3,29.4,19.6
	C43.5,46.8,52.2,33.6,49.5,20.1C49.5,20.1,49.5,20.1,49.5,20.1z M10.6,27.8v-3.9c0-0.4,0.3-0.7,0.7-0.6h6.9l-3,5.2h-3.9
	C10.9,28.4,10.6,28.1,10.6,27.8z M15.5,35.8l-2.2,1.5c-0.3,0.2-0.5,0.1-0.5-0.3l0.3-2.6c0-0.2,0.2-0.4,0.4-0.4c0.1,0,0.2,0,0.3,0.1
	l1.7,1c0.2,0.1,0.3,0.3,0.3,0.5C15.7,35.7,15.6,35.8,15.5,35.8L15.5,35.8z M16.1,34.3l-1.7-1c-0.3-0.2-0.4-0.6-0.2-0.9c0,0,0,0,0,0
	L22,18.8c0.2-0.3,0.6-0.4,0.9-0.2c0,0,0,0,0,0l1.7,1c0.3,0.2,0.4,0.6,0.2,0.9L17,34.1C16.8,34.5,16.4,34.6,16.1,34.3
	C16.1,34.4,16.1,34.4,16.1,34.3L16.1,34.3z M22.1,28.4l3-5.2h1.7l2.5,5.2H22.1z M31.9,30c-0.7-0.3-4.1-8.2-5-10.2s-3.5-7.5-2.7-7.9
	c0.6-0.3,2.8,4,4.4,6.6s5,9.2,5.5,10s-0.4,1.4-0.9,1.6C32.9,30.3,32.3,30.3,31.9,30z M34.2,33.6l-1-1.6c-0.2-0.3-0.1-0.7,0.2-0.9
	c0,0,0,0,0.1,0l1-0.5c0.3-0.2,0.8-0.1,1,0.3c0,0,0,0,0,0l0.8,1.6c0.2,0.4,0.1,0.8-0.3,1l-0.7,0.4C34.9,34.1,34.4,34,34.2,33.6
	C34.2,33.6,34.2,33.6,34.2,33.6z M38,37.9c-0.2-0.7-1.9-0.7-2.6-1.8c-0.5-0.5-0.5-1.2,0-1.7c0.1-0.1,0.1-0.1,0.2-0.1
	C38.5,32.6,38,37.9,38,37.9z M38.9,28.4h-3.5c0-0.2-0.1-0.4-0.2-0.6l-0.6-1.2c-0.5-0.9-1.1-2.1-1.8-3.4h6.1c0.4,0,0.7,0.3,0.7,0.6
	c0,0,0,0,0,0v3.9l0,0C39.5,28.1,39.2,28.4,38.9,28.4L38.9,28.4z"/>
</svg>
